<svg width="111" height="55" viewBox="0 0 111 55" fill="none" xmlns="http://www.w3.org/2000/svg">
    <path d="M17.85 1L36 9.39921V50H3V6.46888H17.85V1ZM17.85 11.0511H6.3V45.4178H24.1827L17.85 42.4874V11.0511ZM32.7 44.5311V31.0296L21.15 25.6844V39.1814L32.7 44.5311ZM32.7 26.2022V12.7007L21.15 7.35554V20.8525L32.7 26.2022Z" fill="#4275C2"/>
    <path d="M54 21.7496V24.6995C51.5167 24.6995 49.3958 23.835 47.6375 22.106C45.8792 20.3771 45 18.2916 45 15.8497C45 13.4079 45.8792 11.3224 47.6375 9.59347C49.3958 7.86449 51.5167 7 54 7V9.94992C52.3417 9.94992 50.925 10.5276 49.75 11.683C48.5833 12.8302 48 14.2191 48 15.8497C48 17.4804 48.5833 18.8734 49.75 20.0288C50.925 21.176 52.3417 21.7496 54 21.7496Z" fill="#373737"/>
    <path d="M62.25 7C63.7 7 64.9375 7.50394 65.9625 8.51183C66.9875 9.51972 67.5 10.7366 67.5 12.1624V13.6373C67.5 15.0631 66.9875 16.2799 65.9625 17.2878C65.0542 18.181 63.9833 18.6768 62.75 18.7751L67.5 24.6995H63.6875L58.95 18.7997H58.5V24.6995H55.5V7H62.25ZM64.5 12.1624C64.5 11.5478 64.2792 11.0275 63.8375 10.6014C63.4042 10.1671 62.875 9.94992 62.25 9.94992H58.5V15.8497H62.25C62.875 15.8497 63.4042 15.6367 63.8375 15.2106C64.2792 14.7763 64.5 14.2519 64.5 13.6373V12.1624Z" fill="#373737"/>
    <path d="M78 24.6995C75.5167 24.6995 73.3958 23.835 71.6375 22.106C69.8792 20.3771 69 18.2916 69 15.8497C69 13.4079 69.8792 11.3224 71.6375 9.59347C73.3958 7.86449 75.5167 7 78 7C80.4833 7 82.6042 7.86449 84.3625 9.59347C86.1208 11.3224 87 13.4079 87 15.8497C87 18.2916 86.1208 20.3771 84.3625 22.106C82.6042 23.835 80.4833 24.6995 78 24.6995ZM78 21.7496C79.6583 21.7496 81.0708 21.176 82.2375 20.0288C83.4125 18.8734 84 17.4804 84 15.8497C84 14.2191 83.4125 12.8302 82.2375 11.683C81.0708 10.5276 79.6583 9.94992 78 9.94992C76.3417 9.94992 74.925 10.5276 73.75 11.683C72.5833 12.8302 72 14.2191 72 15.8497C72 17.4804 72.5833 18.8734 73.75 20.0288C74.925 21.176 76.3417 21.7496 78 21.7496Z" fill="#373737"/>
    <path d="M93.75 7H96.75V9.94992H93.75C93.125 9.94992 92.5917 10.1671 92.15 10.6014C91.7167 11.0275 91.5 11.5478 91.5 12.1624C91.5 12.7769 91.7167 13.3013 92.15 13.7356C92.5917 14.1617 93.125 14.3748 93.75 14.3748C95.2 14.3748 96.4375 14.8787 97.4625 15.8866C98.4875 16.8945 99 18.1114 99 19.5371C99 20.9629 98.4875 22.1798 97.4625 23.1877C96.4375 24.1956 95.2 24.6995 93.75 24.6995H88.5V21.7496H93.75C94.375 21.7496 94.9042 21.5365 95.3375 21.1104C95.7792 20.6761 96 20.1517 96 19.5371C96 18.9226 95.7792 18.4022 95.3375 17.9761C94.9042 17.5419 94.375 17.3247 93.75 17.3247C92.3 17.3247 91.0625 16.8208 90.0375 15.8129C89.0125 14.805 88.5 13.5881 88.5 12.1624C88.5 10.7366 89.0125 9.51972 90.0375 8.51183C91.0625 7.50394 92.3 7 93.75 7Z" fill="#373737"/>
    <path d="M105.75 7H108.75V9.94992H105.75C105.125 9.94992 104.592 10.1671 104.15 10.6014C103.717 11.0275 103.5 11.5478 103.5 12.1624C103.5 12.7769 103.717 13.3013 104.15 13.7356C104.592 14.1617 105.125 14.3748 105.75 14.3748C107.2 14.3748 108.438 14.8787 109.463 15.8866C110.487 16.8945 111 18.1114 111 19.5371C111 20.9629 110.487 22.1798 109.463 23.1877C108.438 24.1956 107.2 24.6995 105.75 24.6995H100.5V21.7496H105.75C106.375 21.7496 106.904 21.5365 107.337 21.1104C107.779 20.6761 108 20.1517 108 19.5371C108 18.9226 107.779 18.4022 107.337 17.9761C106.904 17.5419 106.375 17.3247 105.75 17.3247C104.3 17.3247 103.062 16.8208 102.037 15.8129C101.013 14.805 100.5 13.5881 100.5 12.1624C100.5 10.7366 101.013 9.51972 102.037 8.51183C103.062 7.50394 104.3 7 105.75 7Z" fill="#373737"/>
    <path d="M54 45C51.5167 45 49.3958 44.1355 47.6375 42.4065C45.8792 40.6776 45 38.5921 45 36.1502C45 33.7084 45.8792 31.6229 47.6375 29.894C49.3958 28.165 51.5167 27.3005 54 27.3005C56.4833 27.3005 58.6042 28.165 60.3625 29.894C62.1208 31.6229 63 33.7084 63 36.1502C63 38.5921 62.1208 40.6776 60.3625 42.4065C58.6042 44.1355 56.4833 45 54 45ZM54 42.0501C55.6583 42.0501 57.0708 41.4765 58.2375 40.3293C59.4125 39.1739 60 37.7809 60 36.1502C60 34.5196 59.4125 33.1307 58.2375 31.9835C57.0708 30.8281 55.6583 30.2504 54 30.2504C52.3417 30.2504 50.925 30.8281 49.75 31.9835C48.5833 33.1307 48 34.5196 48 36.1502C48 37.7809 48.5833 39.1739 49.75 40.3293C50.925 41.4765 52.3417 42.0501 54 42.0501Z" fill="#4275C2"/>
    <path d="M68.8375 45L63 27.3005H66.1625L70.5 40.4522L74.8375 27.3005H78L72.1625 45H68.8375Z" fill="#4275C2"/>
    <path d="M97.5 27.3005V30.2504H82.5V34.6753H94.5V37.6252H82.5V42.0501H97.5V45H79.5V27.3005H97.5Z" fill="#4275C2"/>
    <path d="M105.75 27.3005C107.2 27.3005 108.438 27.8044 109.463 28.8123C110.487 29.8202 111 31.0371 111 32.4629V33.9378C111 35.3636 110.487 36.5804 109.463 37.5883C108.554 38.4815 107.483 38.9773 106.25 39.0756L111 45H107.188L102.45 39.1002H102V45H99V27.3005H105.75ZM108 32.4629C108 31.8483 107.779 31.328 107.337 30.9019C106.904 30.4676 106.375 30.2504 105.75 30.2504H102V36.1502H105.75C106.375 36.1502 106.904 35.9372 107.337 35.5111C107.779 35.0768 108 34.5524 108 33.9378V32.4629Z" fill="#4275C2"/>
</svg>
