<svg width="45" height="50" viewBox="0 0 45 50" fill="none" xmlns="http://www.w3.org/2000/svg">
<path fill-rule="evenodd" clip-rule="evenodd" d="M42.886 19C42.6814 17.2094 42.2025 15.4497 41.4592 13.7749C40.4562 11.5148 38.9892 9.44899 37.1331 7.69534L25.8284 19H30H32H42.886ZM22 18.1716V2.00565C19.4602 2.06311 16.9547 2.55784 14.6108 3.46398C12.9057 4.12317 11.311 4.99046 9.86664 6.03821L22 18.1716ZM24 18L35.6073 6.39268C34.0407 5.18498 32.283 4.19613 30.3892 3.46398C28.3536 2.67702 26.196 2.20036 24 2.05095V18ZM17 19H20L8.29902 7.29902C8.18298 7.40234 8.06821 7.50696 7.95473 7.61287C6.05699 9.38409 4.55958 11.4793 3.54077 13.7749C2.7975 15.4497 2.31857 17.2094 2.11395 19L15 19H17ZM22.5 21H22H17L17 48H30L30 21H22.5ZM1.71271 12.9636C0.85628 14.8934 0.314655 16.9281 0.102272 19L0 19V21V48V50H2H15H17H30H32H43H45V48V21V19H44.8977C44.6853 16.9281 44.1437 14.8934 43.2873 12.9636C42.1566 10.4158 40.4992 8.10079 38.4099 6.15076C36.3206 4.20073 33.8402 2.65388 31.1104 1.59853C28.3806 0.543181 25.4547 0 22.5 0C19.5453 0 16.6194 0.543181 13.8896 1.59853C11.1598 2.65388 8.67941 4.20073 6.5901 6.15076C4.50078 8.10079 2.84344 10.4158 1.71271 12.9636ZM2 48V21L15 21L15 48H2ZM32 48V21H43V48H32Z" fill="#CBCDD1"/>
</svg>
