<svg width="68" height="68" viewBox="0 0 68 68" fill="none" xmlns="http://www.w3.org/2000/svg">
    <rect width="68" height="68" fill="#4275C2"/>
    <path fill-rule="evenodd" clip-rule="evenodd" d="M54.886 28C54.6814 26.2094 54.2025 24.4497 53.4592 22.7749C52.4562 20.5148 50.9892 18.449 49.1331 16.6953L37.8284 28H42H44H54.886ZM34 27.1716V11.0057C31.4602 11.0631 28.9547 11.5578 26.6108 12.464C24.9057 13.1232 23.311 13.9905 21.8666 15.0382L34 27.1716ZM36 27L47.6073 15.3927C46.0407 14.185 44.283 13.1961 42.3892 12.464C40.3536 11.677 38.196 11.2004 36 11.051V27ZM29 28H32L20.299 16.299C20.183 16.4023 20.0682 16.507 19.9547 16.6129C18.057 18.3841 16.5596 20.4793 15.5408 22.7749C14.7975 24.4497 14.3186 26.2094 14.114 28L27 28H29ZM34.5 30H34H29L29 57H42L42 30H34.5ZM13.7127 21.9636C12.8563 23.8934 12.3147 25.9281 12.1023 28L12 28V30V57V59H14H27H29H42H44H55H57V57V30V28H56.8977C56.6853 25.9281 56.1437 23.8934 55.2873 21.9636C54.1566 19.4158 52.4992 17.1008 50.4099 15.1508C48.3206 13.2007 45.8402 11.6539 43.1104 10.5985C40.3806 9.54318 37.4547 9 34.5 9C31.5453 9 28.6194 9.54318 25.8896 10.5985C23.1598 11.6539 20.6794 13.2007 18.5901 15.1508C16.5008 17.1008 14.8434 19.4158 13.7127 21.9636ZM14 57V30L27 30L27 57H14ZM44 57V30H55V57H44Z" fill="#F5F5F5"/>
</svg>
