<svg width="16" height="9" viewBox="0 0 16 9" fill="none" xmlns="http://www.w3.org/2000/svg">
    <path d="M15.1184 1.49321L8.24339 8.36821C8.21147 8.40017 8.17356 8.42553 8.13183 8.44283C8.0901 8.46012 8.04537 8.46903 8.00019 8.46903C7.95502 8.46903 7.91029 8.46012 7.86856 8.44283C7.82682 8.42553 7.78891 8.40017 7.75699 8.36821L0.881988 1.49321C0.85005 1.46127 0.824715 1.42336 0.807431 1.38163C0.790146 1.3399 0.78125 1.29518 0.78125 1.25001C0.78125 1.20484 0.790146 1.16012 0.807431 1.11839C0.824715 1.07666 0.85005 1.03874 0.881988 1.00681C0.946489 0.942304 1.03397 0.906067 1.12519 0.906067C1.17036 0.906067 1.21508 0.914964 1.25681 0.932248C1.29854 0.949533 1.33646 0.974867 1.36839 1.00681L8.00019 7.6386L14.632 1.00681C14.6639 0.974867 14.7018 0.949533 14.7436 0.932248C14.7853 0.914964 14.83 0.906067 14.8752 0.906067C14.9204 0.906067 14.9651 0.914964 15.0068 0.932248C15.0485 0.949533 15.0865 0.974867 15.1184 1.00681C15.1503 1.03874 15.1757 1.07666 15.193 1.11839C15.2102 1.16012 15.2191 1.20484 15.2191 1.25001C15.2191 1.29518 15.2102 1.3399 15.193 1.38163C15.1757 1.42336 15.1503 1.46127 15.1184 1.49321Z" fill="#001331"/>
</svg>
