<svg width="50" height="50" viewBox="0 0 50 50" fill="none" xmlns="http://www.w3.org/2000/svg">
    <rect x="0.5" y="0.5" width="49" height="49" stroke="#4275C2"/>
    <path d="M37.3263 17.27C37.2559 17.1855 37.1678 17.1175 37.0682 17.0709C36.9686 17.0242 36.86 17 36.75 17H16.375L15.5788 12.6163C15.5474 12.4434 15.4565 12.2871 15.3217 12.1745C15.1869 12.0619 15.0169 12.0001 14.8412 12H11.75C11.5511 12 11.3603 12.079 11.2197 12.2197C11.079 12.3603 11 12.5511 11 12.75C11 12.9489 11.079 13.1397 11.2197 13.2803C11.3603 13.421 11.5511 13.5 11.75 13.5H14.215L17.4412 31.2425C17.5424 31.8019 17.815 32.3161 18.2212 32.7138C17.7303 33.1059 17.3635 33.632 17.1654 34.2283C16.9673 34.8246 16.9463 35.4656 17.1049 36.0736C17.2635 36.6816 17.595 37.2306 18.0593 37.6541C18.5235 38.0776 19.1005 38.3574 19.7205 38.4597C20.3405 38.562 20.9768 38.4824 21.5525 38.2305C22.1282 37.9786 22.6185 37.5652 22.964 37.0404C23.3096 36.5156 23.4956 35.9018 23.4995 35.2735C23.5035 34.6451 23.3252 34.0291 22.9862 33.5H29.5138C29.1251 34.1082 28.95 34.8285 29.016 35.5473C29.082 36.2661 29.3854 36.9424 29.8784 37.4697C30.3714 37.9969 31.0258 38.345 31.7386 38.4591C32.4513 38.5732 33.1817 38.4468 33.8146 38.0999C34.4476 37.7529 34.947 37.2051 35.2341 36.5429C35.5213 35.8806 35.5798 35.1417 35.4004 34.4425C35.2211 33.7433 34.8141 33.1238 34.2437 32.6815C33.6732 32.2392 32.9718 31.9995 32.25 32H20.1462C19.8535 32 19.57 31.8973 19.3453 31.7098C19.1205 31.5223 18.9687 31.2618 18.9163 30.9737L18.4663 28.5H33.2625C33.9065 28.5002 34.5302 28.2743 35.0248 27.8617C35.5193 27.4492 35.8534 26.8761 35.9688 26.2425L37.4875 17.8837C37.5071 17.7759 37.5028 17.665 37.475 17.559C37.4471 17.4529 37.3964 17.3543 37.3263 17.27ZM22 35.25C22 35.5961 21.8974 35.9345 21.7051 36.2222C21.5128 36.51 21.2395 36.7343 20.9197 36.8668C20.5999 36.9992 20.2481 37.0339 19.9086 36.9664C19.5691 36.8988 19.2573 36.7322 19.0126 36.4874C18.7678 36.2427 18.6011 35.9309 18.5336 35.5914C18.4661 35.2519 18.5008 34.9001 18.6332 34.5803C18.7657 34.2605 18.99 33.9872 19.2778 33.7949C19.5655 33.6026 19.9039 33.5 20.25 33.5C20.7141 33.5 21.1592 33.6844 21.4874 34.0126C21.8156 34.3408 22 34.7859 22 35.25ZM34 35.25C34 35.5961 33.8974 35.9345 33.7051 36.2222C33.5128 36.51 33.2395 36.7343 32.9197 36.8668C32.5999 36.9992 32.2481 37.0339 31.9086 36.9664C31.5691 36.8988 31.2573 36.7322 31.0126 36.4874C30.7678 36.2427 30.6012 35.9309 30.5336 35.5914C30.4661 35.2519 30.5008 34.9001 30.6332 34.5803C30.7657 34.2605 30.99 33.9872 31.2778 33.7949C31.5655 33.6026 31.9039 33.5 32.25 33.5C32.7141 33.5 33.1592 33.6844 33.4874 34.0126C33.8156 34.3408 34 34.7859 34 35.25ZM34.4925 25.9737C34.4401 26.2618 34.2883 26.5223 34.0635 26.7098C33.8387 26.8973 33.5552 27 33.2625 27H18.1938L16.6487 18.5H35.8512L34.4925 25.9737Z" fill="#4275C2"/>
</svg>
