<svg width="50" height="50" viewBox="0 0 50 50" fill="none" xmlns="http://www.w3.org/2000/svg">
    <rect x="0.5" y="0.5" width="49" height="49" stroke="#4275C2"/>
    <path d="M37.4146 36.3776C35.4383 32.9626 32.3358 30.5663 28.7308 29.5501C30.4835 28.6591 31.885 27.2039 32.7095 25.4189C33.5339 23.634 33.7331 21.6234 33.275 19.7114C32.8169 17.7994 31.7283 16.0974 30.1845 14.8798C28.6408 13.6622 26.7319 13 24.7658 13C22.7997 13 20.8909 13.6622 19.3471 14.8798C17.8034 16.0974 16.7147 17.7994 16.2566 19.7114C15.7985 21.6234 15.9978 23.634 16.8222 25.4189C17.6466 27.2039 19.0481 28.6591 20.8008 29.5501C17.1958 30.5651 14.0933 32.9613 12.1171 36.3776C12.0628 36.4629 12.0264 36.5584 12.0099 36.6582C11.9935 36.758 11.9975 36.8601 12.0215 36.9584C12.0456 37.0566 12.0893 37.149 12.15 37.2299C12.2107 37.3108 12.2871 37.3786 12.3747 37.4293C12.4622 37.4799 12.5591 37.5123 12.6596 37.5245C12.76 37.5367 12.8618 37.5284 12.959 37.5002C13.0561 37.4721 13.1466 37.4245 13.2248 37.3605C13.3031 37.2964 13.3677 37.2172 13.4146 37.1276C15.8158 32.9788 20.0583 30.5026 24.7658 30.5026C29.4733 30.5026 33.7158 32.9788 36.1171 37.1276C36.1639 37.2172 36.2285 37.2964 36.3068 37.3605C36.3851 37.4245 36.4755 37.4721 36.5727 37.5002C36.6698 37.5284 36.7717 37.5367 36.8721 37.5245C36.9725 37.5123 37.0694 37.4799 37.157 37.4293C37.2445 37.3786 37.321 37.3108 37.3817 37.2299C37.4423 37.149 37.486 37.0566 37.5101 36.9584C37.5342 36.8601 37.5381 36.758 37.5217 36.6582C37.5053 36.5584 37.4688 36.4629 37.4146 36.3776ZM17.5158 21.7526C17.5158 20.3187 17.941 18.917 18.7377 17.7247C19.5343 16.5324 20.6666 15.6032 21.9914 15.0545C23.3161 14.5057 24.7739 14.3621 26.1802 14.6419C27.5866 14.9216 28.8784 15.6121 29.8923 16.6261C30.9063 17.64 31.5968 18.9318 31.8765 20.3382C32.1562 21.7445 32.0127 23.2023 31.4639 24.527C30.9152 25.8518 29.986 26.9841 28.7937 27.7807C27.6014 28.5774 26.1997 29.0026 24.7658 29.0026C22.8437 29.0003 21.001 28.2357 19.6418 26.8765C18.2827 25.5174 17.5181 23.6747 17.5158 21.7526Z" fill="#4275C2"/>
</svg>
