<svg width="28" height="25" viewBox="0 0 28 25" fill="none" xmlns="http://www.w3.org/2000/svg">
    <path d="M27.6098 0.273765C27.4549 0.139975 27.2664 0.0509958 27.0646 0.0164137C26.8629 -0.0181684 26.6555 0.00295726 26.4648 0.0775146L1.13233 9.99126C0.773309 10.1309 0.469357 10.3833 0.266233 10.7106C0.0631092 11.0379 -0.0281934 11.4224 0.00607134 11.806C0.040336 12.1897 0.198313 12.5519 0.45622 12.838C0.714126 13.1241 1.058 13.3187 1.43608 13.3925L7.99983 14.6813V22C7.99854 22.3987 8.117 22.7885 8.33988 23.119C8.56276 23.4496 8.87977 23.7055 9.24983 23.8538C9.61932 24.0046 10.0257 24.0409 10.416 23.9577C10.8064 23.8746 11.1627 23.6759 11.4386 23.3875L14.6036 20.105L19.6248 24.5C19.9871 24.8213 20.4543 24.9992 20.9386 25C21.1508 24.9998 21.3617 24.9665 21.5636 24.9013C21.8935 24.7966 22.1903 24.6073 22.4243 24.3522C22.6583 24.0971 22.8214 23.7852 22.8973 23.4475L27.9711 1.37501C28.0165 1.17595 28.0068 0.96829 27.9432 0.77429C27.8795 0.58029 27.7643 0.407266 27.6098 0.273765ZM19.9673 4.77376L8.76858 12.7938L2.56858 11.5775L19.9673 4.77376ZM9.99983 22V16.065L13.0986 18.7825L9.99983 22ZM20.9411 23L10.6061 13.9375L25.4811 3.27626L20.9411 23Z" fill="#4275C2" fill-opacity="0.6"/>
</svg>
